<?xml version="1.0" encoding="utf-8"?>
<!-- Generator: Adobe Illustrator 16.0.0, SVG Export Plug-In . SVG Version: 6.00 Build 0)  -->
<!DOCTYPE svg PUBLIC "-//W3C//DTD SVG 1.1//EN" "http://www.w3.org/Graphics/SVG/1.1/DTD/svg11.dtd">
<svg version="1.1" id="Layer_1" xmlns="http://www.w3.org/2000/svg" xmlns:xlink="http://www.w3.org/1999/xlink" x="0px" y="0px"
	 width="1440px" height="960px" viewBox="0 0 1440 960" enable-background="new 0 0 1440 960" xml:space="preserve">
<pattern  width="514.66" height="109.575" patternUnits="userSpaceOnUse" id="New_Pattern_2" viewBox="127.912 -164.362 514.66 109.575" overflow="visible">
	<g>
		<polygon fill="none" points="127.912,-164.362 642.572,-164.362 642.572,-54.787 127.912,-54.787 		"/>
		<g>
			<path fill="none" stroke="#39AD84" stroke-miterlimit="10" d="M642.072,0c0-35.599,28.859-64.457,64.457-64.457
				c35.6,0,64.459,28.858,64.459,64.457"/>
		</g>
		<g>
			<path fill="none" stroke="#39AD84" stroke-miterlimit="10" d="M127.412,0c0-35.599,28.859-64.457,64.457-64.457
				c35.6,0,64.459,28.858,64.459,64.457"/>
			<path fill="none" stroke="#39AD84" stroke-miterlimit="10" d="M385.242,0c0-35.599,29.861-64.457,65.459-64.457
				c35.6,0,64.459,28.858,64.459,64.457"/>
		</g>
		<g>
			<path fill="none" stroke="#39AD84" stroke-miterlimit="10" d="M642.072-21.915c0-35.599,28.859-64.457,64.457-64.457
				c35.6,0,64.459,28.858,64.459,64.457"/>
		</g>
		<g>
			<path fill="none" stroke="#39AD84" stroke-miterlimit="10" d="M127.412-21.915c0-35.599,28.859-64.457,64.457-64.457
				c35.6,0,64.459,28.858,64.459,64.457"/>
			<path fill="none" stroke="#39AD84" stroke-miterlimit="10" d="M385.242-21.915c0-35.599,29.861-64.457,65.459-64.457
				c35.6,0,64.459,28.858,64.459,64.457"/>
		</g>
		<g>
			<path fill="none" stroke="#39AD84" stroke-miterlimit="10" d="M642.072-43.83c0-35.599,28.859-64.457,64.457-64.457
				c35.6,0,64.459,28.858,64.459,64.457"/>
		</g>
		<g>
			<path fill="none" stroke="#39AD84" stroke-miterlimit="10" d="M127.412-43.83c0-35.599,28.859-64.457,64.457-64.457
				c35.6,0,64.459,28.858,64.459,64.457"/>
			<path fill="none" stroke="#39AD84" stroke-miterlimit="10" d="M385.242-43.83c0-35.599,29.861-64.457,65.459-64.457
				c35.6,0,64.459,28.858,64.459,64.457"/>
		</g>
		<g>
			<path fill="none" stroke="#39AD84" stroke-miterlimit="10" d="M642.072-65.745c0-35.599,28.859-64.457,64.457-64.457
				c35.6,0,64.459,28.858,64.459,64.457"/>
		</g>
		<g>
			<path fill="none" stroke="#39AD84" stroke-miterlimit="10" d="M127.412-65.745c0-35.599,28.859-64.457,64.457-64.457
				c35.6,0,64.459,28.858,64.459,64.457"/>
			<path fill="none" stroke="#39AD84" stroke-miterlimit="10" d="M385.242-65.745c0,35.6-28.857,64.458-64.457,64.458
				c-35.598,0-64.457-28.858-64.457-64.458"/>
			<path fill="none" stroke="#39AD84" stroke-miterlimit="10" d="M385.242-65.745c0-35.599,29.861-64.457,65.459-64.457
				c35.6,0,64.459,28.858,64.459,64.457"/>
			<path fill="none" stroke="#39AD84" stroke-miterlimit="10" d="M643.072-65.745c0,35.6-28.857,64.458-64.457,64.458
				c-35.598,0-63.455-28.858-63.455-64.458"/>
		</g>
		<g>
			<path fill="none" stroke="#39AD84" stroke-miterlimit="10" d="M128.412-65.745c0,35.6-28.857,64.458-64.457,64.458
				C28.357-1.287,0.5-30.146,0.5-65.745"/>
		</g>
		<g>
			<path fill="none" stroke="#39AD84" stroke-miterlimit="10" d="M642.072-87.66c0-35.599,28.859-64.457,64.457-64.457
				c35.6,0,64.459,28.858,64.459,64.457"/>
		</g>
		<g>
			<path fill="none" stroke="#39AD84" stroke-miterlimit="10" d="M127.412-87.66c0-35.599,28.859-64.457,64.457-64.457
				c35.6,0,64.459,28.858,64.459,64.457"/>
			<path fill="none" stroke="#39AD84" stroke-miterlimit="10" d="M385.242-87.66c0,35.6-28.857,64.458-64.457,64.458
				c-35.598,0-64.457-28.858-64.457-64.458"/>
			<path fill="none" stroke="#39AD84" stroke-miterlimit="10" d="M385.242-87.66c0-35.599,29.861-64.457,65.459-64.457
				c35.6,0,64.459,28.858,64.459,64.457"/>
			<path fill="none" stroke="#39AD84" stroke-miterlimit="10" d="M643.072-87.66c0,35.6-28.857,64.458-64.457,64.458
				c-35.598,0-63.455-28.858-63.455-64.458"/>
		</g>
		<g>
			<path fill="none" stroke="#39AD84" stroke-miterlimit="10" d="M128.412-87.66c0,35.6-28.857,64.458-64.457,64.458
				C28.357-23.202,0.5-52.061,0.5-87.66"/>
		</g>
		<g>
			<path fill="none" stroke="#39AD84" stroke-miterlimit="10" d="M642.072-109.575c0-35.599,28.859-64.457,64.457-64.457
				c35.6,0,64.459,28.858,64.459,64.457"/>
		</g>
		<g>
			<path fill="none" stroke="#39AD84" stroke-miterlimit="10" d="M127.412-109.575c0-35.599,28.859-64.457,64.457-64.457
				c35.6,0,64.459,28.858,64.459,64.457"/>
			<path fill="none" stroke="#39AD84" stroke-miterlimit="10" d="M385.242-109.575c0,35.6-28.857,64.458-64.457,64.458
				c-35.598,0-64.457-28.858-64.457-64.458"/>
			<path fill="none" stroke="#39AD84" stroke-miterlimit="10" d="M385.242-109.575c0-35.599,29.861-64.457,65.459-64.457
				c35.6,0,64.459,28.858,64.459,64.457"/>
			<path fill="none" stroke="#39AD84" stroke-miterlimit="10" d="M643.072-109.575c0,35.6-28.857,64.458-64.457,64.458
				c-35.598,0-63.455-28.858-63.455-64.458"/>
		</g>
		<g>
			<path fill="none" stroke="#39AD84" stroke-miterlimit="10" d="M128.412-109.575c0,35.6-28.857,64.458-64.457,64.458
				C28.357-45.117,0.5-73.976,0.5-109.575"/>
		</g>
		<g>
			<path fill="none" stroke="#39AD84" stroke-miterlimit="10" d="M642.072-131.49c0-35.599,28.859-64.457,64.457-64.457
				c35.6,0,64.459,28.858,64.459,64.457"/>
		</g>
		<g>
			<path fill="none" stroke="#39AD84" stroke-miterlimit="10" d="M127.412-131.49c0-35.599,28.859-64.457,64.457-64.457
				c35.6,0,64.459,28.858,64.459,64.457"/>
			<path fill="none" stroke="#39AD84" stroke-miterlimit="10" d="M385.242-131.49c0,35.6-28.857,64.458-64.457,64.458
				c-35.598,0-64.457-28.858-64.457-64.458"/>
			<path fill="none" stroke="#39AD84" stroke-miterlimit="10" d="M385.242-131.49c0-35.599,29.861-64.457,65.459-64.457
				c35.6,0,64.459,28.858,64.459,64.457"/>
			<path fill="none" stroke="#39AD84" stroke-miterlimit="10" d="M643.072-131.49c0,35.6-28.857,64.458-64.457,64.458
				c-35.598,0-63.455-28.858-63.455-64.458"/>
		</g>
		<g>
			<path fill="none" stroke="#39AD84" stroke-miterlimit="10" d="M128.412-131.49c0,35.6-28.857,64.458-64.457,64.458
				C28.357-67.032,0.5-95.891,0.5-131.49"/>
		</g>
		<g>
			<path fill="none" stroke="#39AD84" stroke-miterlimit="10" d="M642.072-153.405c0-35.599,28.859-64.457,64.457-64.457
				c35.6,0,64.459,28.858,64.459,64.457"/>
		</g>
		<g>
			<path fill="none" stroke="#39AD84" stroke-miterlimit="10" d="M127.412-153.405c0-35.599,28.859-64.457,64.457-64.457
				c35.6,0,64.459,28.858,64.459,64.457"/>
			<path fill="none" stroke="#39AD84" stroke-miterlimit="10" d="M385.242-153.405c0,35.6-28.857,64.458-64.457,64.458
				c-35.598,0-64.457-28.858-64.457-64.458"/>
			<path fill="none" stroke="#39AD84" stroke-miterlimit="10" d="M385.242-153.405c0-35.599,29.861-64.457,65.459-64.457
				c35.6,0,64.459,28.858,64.459,64.457"/>
			<path fill="none" stroke="#39AD84" stroke-miterlimit="10" d="M643.072-153.405c0,35.6-28.857,64.458-64.457,64.458
				c-35.598,0-63.455-28.858-63.455-64.458"/>
		</g>
		<g>
			<path fill="none" stroke="#39AD84" stroke-miterlimit="10" d="M128.412-153.405c0,35.6-28.857,64.458-64.457,64.458
				c-35.598,0-63.455-28.858-63.455-64.458"/>
		</g>
		<g>
			<path fill="none" stroke="#39AD84" stroke-miterlimit="10" d="M385.242-175.32c0,35.6-28.857,64.458-64.457,64.458
				c-35.598,0-64.457-28.858-64.457-64.458"/>
			<path fill="none" stroke="#39AD84" stroke-miterlimit="10" d="M643.072-175.32c0,35.6-28.857,64.458-64.457,64.458
				c-35.598,0-63.455-28.858-63.455-64.458"/>
		</g>
		<g>
			<path fill="none" stroke="#39AD84" stroke-miterlimit="10" d="M128.412-175.32c0,35.6-28.857,64.458-64.457,64.458
				c-35.598,0-63.455-28.858-63.455-64.458"/>
		</g>
		<g>
			<path fill="none" stroke="#39AD84" stroke-miterlimit="10" d="M385.242-197.235c0,35.6-28.857,64.458-64.457,64.458
				c-35.598,0-64.457-28.858-64.457-64.458"/>
			<path fill="none" stroke="#39AD84" stroke-miterlimit="10" d="M643.072-197.235c0,35.6-28.857,64.458-64.457,64.458
				c-35.598,0-63.455-28.858-63.455-64.458"/>
		</g>
		<g>
			<path fill="none" stroke="#39AD84" stroke-miterlimit="10" d="M128.412-197.235c0,35.6-28.857,64.458-64.457,64.458
				c-35.598,0-63.455-28.858-63.455-64.458"/>
		</g>
		<g>
			<path fill="none" stroke="#39AD84" stroke-miterlimit="10" d="M385.242-219.15c0,35.6-28.857,64.458-64.457,64.458
				c-35.598,0-64.457-28.858-64.457-64.458"/>
			<path fill="none" stroke="#39AD84" stroke-miterlimit="10" d="M643.072-219.15c0,35.6-28.857,64.458-64.457,64.458
				c-35.598,0-63.455-28.858-63.455-64.458"/>
		</g>
		<g>
			<path fill="none" stroke="#39AD84" stroke-miterlimit="10" d="M128.412-219.15c0,35.6-28.857,64.458-64.457,64.458
				c-35.598,0-63.455-28.858-63.455-64.458"/>
		</g>
	</g>
</pattern>
<rect fill="url(#New_Pattern_2)" width="1440" height="960"/>
</svg>
